<svg width="64" height="64" viewBox="0 0 64 64" fill="none" xmlns="http://www.w3.org/2000/svg">
<g clip-path="url(#clip0_101_124)">
<rect x="8" y="8" width="48" height="48" rx="24" fill="white"/>
<g clip-path="url(#clip1_101_124)">
<path d="M32 56C45.531 56 56.5 45.2548 56.5 32C56.5 18.7452 45.531 8 32 8C18.469 8 7.5 18.7452 7.5 32C7.5 45.2548 18.469 56 32 56Z" fill="#3C5A9A"/>
<path d="M36.9836 20H33.2477C31.0307 20 28.5648 20.9573 28.5648 24.2568C28.5756 25.4064 28.5648 26.5075 28.5648 27.7466H26V31.9369H28.6441V44H33.5029V31.8573H36.7098L37 27.7348H33.4192C33.4192 27.7348 33.4272 25.901 33.4192 25.3685C33.4192 24.0646 34.7406 24.1393 34.8201 24.1393C35.4489 24.1393 36.6716 24.1411 36.9855 24.1393V20H36.9836Z" fill="white"/>
</g>
</g>
<defs>
<clipPath id="clip0_101_124">
<rect x="8" y="8" width="48" height="48" rx="24" fill="white"/>
</clipPath>
<clipPath id="clip1_101_124">
<rect width="48" height="48" fill="white" transform="translate(8 8)"/>
</clipPath>
</defs>
</svg>
