<svg width="14" height="12" viewBox="0 0 14 12" fill="none" xmlns="http://www.w3.org/2000/svg">
<path d="M5.25996 11.1C6.15052 11.1 6.87246 10.3781 6.87246 9.4875C6.87246 8.59694 6.15052 7.875 5.25996 7.875C4.3694 7.875 3.64746 8.59694 3.64746 9.4875C3.64746 10.3781 4.3694 11.1 5.25996 11.1Z" stroke="#13192F" stroke-width="1.2" stroke-miterlimit="10" stroke-linecap="round" stroke-linejoin="round"/>
<path d="M3.6475 9.4873H1.375" stroke="#13192F" stroke-width="1.2" stroke-miterlimit="10" stroke-linecap="round" stroke-linejoin="round"/>
<path d="M12.6249 9.4873H8.62744" stroke="#13192F" stroke-width="1.2" stroke-miterlimit="10" stroke-linecap="round" stroke-linejoin="round"/>
<path d="M8.7325 4.35C9.62306 4.35 10.345 3.62806 10.345 2.7375C10.345 1.84694 9.62306 1.125 8.7325 1.125C7.84194 1.125 7.12 1.84694 7.12 2.7375C7.12 3.62806 7.84194 4.35 8.7325 4.35Z" stroke="#13192F" stroke-width="1.2" stroke-miterlimit="10" stroke-linecap="round" stroke-linejoin="round"/>
<path d="M10.3525 2.7373H12.625" stroke="#13192F" stroke-width="1.2" stroke-miterlimit="10" stroke-linecap="round" stroke-linejoin="round"/>
<path d="M1.375 2.7373H5.3725" stroke="#13192F" stroke-width="1.2" stroke-miterlimit="10" stroke-linecap="round" stroke-linejoin="round"/>
</svg>
