<svg width="64" height="64" viewBox="0 0 64 64" fill="none" xmlns="http://www.w3.org/2000/svg">
<g clip-path="url(#clip0_101_116)">
<rect x="8" y="8" width="48" height="48" rx="24" fill="white"/>
<path d="M19.1858 57.5687C16.0934 57.4288 14.4135 56.917 13.2961 56.4835C11.8156 55.9102 10.76 55.2277 9.64882 54.1241C8.53764 53.0204 7.84991 51.9706 7.27655 50.498C6.84073 49.3867 6.32609 47.7159 6.18545 44.6401C6.03091 41.3154 6 40.3178 6 31.8945C6 23.4712 6.034 22.4751 6.18391 19.1473C6.32455 16.0715 6.84227 14.4038 7.275 13.2894C7.85146 11.8168 8.53919 10.767 9.64728 9.66028C10.7569 8.55664 11.8125 7.87109 13.2946 7.30083C14.4119 6.86736 16.0918 6.35551 19.1843 6.21563C22.5287 6.06346 23.5332 6.03271 31.9992 6.03271C40.4683 6.03271 41.4698 6.06653 44.8157 6.21563C47.9082 6.35551 49.585 6.87044 50.7054 7.30083C52.186 7.87109 53.2415 8.55664 54.3527 9.66028C55.4639 10.7639 56.1485 11.8153 56.725 13.2878C57.1608 14.3992 57.6755 16.07 57.8161 19.1457C57.9691 22.4736 58 23.4696 58 31.8929C58 40.3132 57.9691 41.3123 57.8161 44.6401C57.6755 47.7159 57.1577 49.3867 56.725 50.498C56.1485 51.9706 55.4624 53.0204 54.3527 54.1241C53.2431 55.2277 52.186 55.9102 50.7054 56.4835C49.5881 56.917 47.9082 57.4288 44.8157 57.5687C41.4729 57.7209 40.4683 57.7516 31.9992 57.7516C23.5332 57.7516 22.5287 57.7224 19.1858 57.5687Z" fill="url(#paint0_radial_101_116)"/>
<path d="M19.1858 57.5687C16.0934 57.4288 14.4135 56.917 13.2961 56.4835C11.8156 55.9102 10.76 55.2277 9.64882 54.1241C8.53764 53.0204 7.84991 51.9706 7.27655 50.498C6.84073 49.3867 6.32609 47.7159 6.18545 44.6401C6.03091 41.3154 6 40.3178 6 31.8945C6 23.4712 6.034 22.4751 6.18391 19.1473C6.32455 16.0715 6.84227 14.4038 7.275 13.2894C7.85146 11.8168 8.53919 10.767 9.64728 9.66028C10.7569 8.55664 11.8125 7.87109 13.2946 7.30083C14.4119 6.86736 16.0918 6.35551 19.1843 6.21563C22.5287 6.06346 23.5332 6.03271 31.9992 6.03271C40.4683 6.03271 41.4698 6.06653 44.8157 6.21563C47.9082 6.35551 49.585 6.87044 50.7054 7.30083C52.186 7.87109 53.2415 8.55664 54.3527 9.66028C55.4639 10.7639 56.1485 11.8153 56.725 13.2878C57.1608 14.3992 57.6755 16.07 57.8161 19.1457C57.9691 22.4736 58 23.4696 58 31.8929C58 40.3132 57.9691 41.3123 57.8161 44.6401C57.6755 47.7159 57.1577 49.3867 56.725 50.498C56.1485 51.9706 55.4624 53.0204 54.3527 54.1241C53.2431 55.2277 52.186 55.9102 50.7054 56.4835C49.5881 56.917 47.9082 57.4288 44.8157 57.5687C41.4729 57.7209 40.4683 57.7516 31.9992 57.7516C23.5332 57.7516 22.5287 57.7224 19.1858 57.5687Z" fill="url(#paint1_radial_101_116)"/>
<g clip-path="url(#clip1_101_116)">
<path d="M27.089 31.9766C27.089 29.2558 29.306 27.0496 32.0416 27.0496C34.7771 27.0496 36.9953 29.2558 36.9953 31.9766C36.9953 34.6974 34.7771 36.9036 32.0416 36.9036C29.306 36.9036 27.089 34.6974 27.089 31.9766ZM24.411 31.9766C24.411 36.1682 27.8272 39.5659 32.0416 39.5659C36.2559 39.5659 39.6721 36.1682 39.6721 31.9766C39.6721 27.785 36.2559 24.3873 32.0416 24.3873C27.8272 24.3873 24.4112 27.7848 24.4112 31.9766H24.411ZM38.1911 24.0864C38.1909 24.4372 38.2954 24.7801 38.4912 25.0719C38.687 25.3636 38.9654 25.5911 39.2912 25.7254C39.617 25.8598 39.9755 25.8951 40.3215 25.8268C40.6674 25.7585 40.9852 25.5897 41.2347 25.3417C41.4842 25.0938 41.6541 24.7779 41.7231 24.4338C41.792 24.0898 41.7569 23.7332 41.622 23.4091C41.4872 23.0849 41.2587 22.8079 40.9656 22.6129C40.6724 22.4179 40.3277 22.3137 39.975 22.3136H39.9743C39.5015 22.3138 39.0482 22.5006 38.7138 22.833C38.3795 23.1654 38.1915 23.6162 38.1911 24.0864ZM26.0381 44.0071C24.5892 43.9415 23.8018 43.7015 23.2785 43.4987C22.5847 43.2301 22.0896 42.9101 21.5692 42.3932C21.0487 41.8763 20.7266 41.3844 20.4576 40.6943C20.2536 40.1741 20.0123 39.3906 19.9465 37.9497C19.8744 36.3918 19.86 35.9238 19.86 31.9768C19.86 28.0299 19.8756 27.5632 19.9465 26.004C20.0124 24.563 20.2555 23.7811 20.4576 23.2593C20.7277 22.5693 21.0494 22.077 21.5692 21.5593C22.0889 21.0417 22.5835 20.7212 23.2785 20.4538C23.8015 20.2509 24.5892 20.0109 26.0381 19.9454C27.6044 19.8737 28.075 19.8594 32.0416 19.8594C36.0082 19.8594 36.4792 19.8746 38.0469 19.9456C39.4957 20.0112 40.2818 20.253 40.8064 20.454C41.5002 20.7215 41.9953 21.0426 42.5157 21.5595C43.0362 22.0765 43.3572 22.5695 43.6273 23.2596C43.8313 23.7798 44.0726 24.5633 44.1384 26.0043C44.2105 27.5635 44.2249 28.0302 44.2249 31.9771C44.2249 35.924 44.2105 36.3907 44.1384 37.9499C44.0725 39.3909 43.8299 40.1741 43.6273 40.6946C43.3572 41.3846 43.0355 41.877 42.5157 42.3934C41.996 42.9099 41.5002 43.2303 40.8064 43.499C40.2834 43.7019 39.4957 43.9419 38.0469 44.0074C36.4805 44.079 36.0099 44.0933 32.0416 44.0933C28.0732 44.0933 27.604 44.079 26.0381 44.0074V44.0071ZM25.915 17.2863C24.3331 17.3579 23.2521 17.6074 22.308 17.9728C21.3309 18.3501 20.5027 18.8563 19.6756 19.6775C18.8486 20.4988 18.341 21.3227 17.9616 22.2957C17.5943 23.2352 17.3434 24.3098 17.2714 25.8832C17.1982 27.4591 17.1814 27.9629 17.1814 31.9766C17.1814 35.9903 17.1982 36.4942 17.2714 38.07C17.3434 39.6436 17.5943 40.718 17.9616 41.6575C18.341 42.6293 18.8487 43.4547 19.6756 44.2757C20.5026 45.0966 21.3298 45.6021 22.308 45.9804C23.2539 46.3458 24.3331 46.5953 25.915 46.6669C27.5003 46.7386 28.006 46.7564 32.0416 46.7564C36.0771 46.7564 36.5837 46.7398 38.1681 46.6669C39.7502 46.5953 40.8305 46.3458 41.7751 45.9804C42.7522 45.6021 43.5804 45.097 44.4075 44.2757C45.2345 43.4544 45.7411 42.6293 46.1215 41.6575C46.4888 40.718 46.7409 39.6434 46.8117 38.07C46.8838 36.493 46.9005 35.9903 46.9005 31.9766C46.9005 27.9629 46.8838 27.4591 46.8117 25.8832C46.7397 24.3097 46.4888 23.2346 46.1215 22.2957C45.7411 21.3239 45.2332 20.5001 44.4075 19.6775C43.5817 18.855 42.7522 18.3501 41.7763 17.9728C40.8305 17.6074 39.7501 17.3568 38.1693 17.2863C36.5846 17.2143 36.0783 17.1968 32.0433 17.1968C28.0084 17.1968 27.5009 17.2134 25.9156 17.2863" fill="white"/>
</g>
</g>
<defs>
<radialGradient id="paint0_radial_101_116" cx="0" cy="0" r="1" gradientUnits="userSpaceOnUse" gradientTransform="translate(9.36539 56.6186) scale(66.0207 65.6638)">
<stop offset="0.09" stop-color="#FA8F21"/>
<stop offset="0.78" stop-color="#D82D7E"/>
</radialGradient>
<radialGradient id="paint1_radial_101_116" cx="0" cy="0" r="1" gradientUnits="userSpaceOnUse" gradientTransform="translate(42.0186 54.9579) scale(58.0988 57.7848)">
<stop offset="0.64" stop-color="#8C3AAA" stop-opacity="0"/>
<stop offset="1" stop-color="#8C3AAA"/>
</radialGradient>
<clipPath id="clip0_101_116">
<rect x="8" y="8" width="48" height="48" rx="24" fill="white"/>
</clipPath>
<clipPath id="clip1_101_116">
<rect width="40" height="40" fill="white" transform="translate(12 12)"/>
</clipPath>
</defs>
</svg>
